<svg xmlns="http://www.w3.org/2000/svg" xmlns:xlink="http://www.w3.org/1999/xlink" viewBox="0 0 298.49 196.21"><defs><style>.cls-1{fill:url(#Dégradé_sans_nom_52);}.cls-2{fill:url(#Dégradé_sans_nom_52-2);}.cls-3{fill:url(#Dégradé_sans_nom_52-3);}.cls-4{fill:#25204c;}.cls-5{fill:url(#Dégradé_sans_nom_29);}.cls-6{fill:#7f1e68;}.cls-7{fill:url(#Dégradé_sans_nom_60);}.cls-8{fill:url(#Dégradé_sans_nom_58);}.cls-9{fill:url(#Dégradé_sans_nom_20);}</style><linearGradient id="Dégradé_sans_nom_52" x1="53.57" y1="93.03" x2="248.5" y2="93.03" gradientUnits="userSpaceOnUse"><stop offset="0" stop-color="#25204c"/><stop offset="0.14" stop-color="#7f1e68"/><stop offset="0.14" stop-color="#812068"/><stop offset="0.2" stop-color="#a4485c"/><stop offset="0.25" stop-color="#c26952"/><stop offset="0.31" stop-color="#d9824b"/><stop offset="0.37" stop-color="#e99545"/><stop offset="0.43" stop-color="#f39f42"/><stop offset="0.5" stop-color="#f6a341"/><stop offset="0.59" stop-color="#f4a042"/><stop offset="0.65" stop-color="#eb9744"/><stop offset="0.7" stop-color="#de8849"/><stop offset="0.75" stop-color="#cb724f"/><stop offset="0.8" stop-color="#b25757"/><stop offset="0.84" stop-color="#933561"/><stop offset="0.86" stop-color="#7f1e68"/><stop offset="1" stop-color="#25204c"/></linearGradient><linearGradient id="Dégradé_sans_nom_52-2" x1="53.57" y1="75.79" x2="248.5" y2="75.79" xlink:href="#Dégradé_sans_nom_52"/><linearGradient id="Dégradé_sans_nom_52-3" x1="53.57" y1="58.03" x2="248.5" y2="58.03" xlink:href="#Dégradé_sans_nom_52"/><linearGradient id="Dégradé_sans_nom_29" x1="88.82" y1="140.23" x2="92.86" y2="140.23" gradientUnits="userSpaceOnUse"><stop offset="0" stop-color="#5d2264"/><stop offset="0.85" stop-color="#7f1e68"/></linearGradient><linearGradient id="Dégradé_sans_nom_60" x1="187.28" y1="142.98" x2="190.17" y2="142.98" gradientUnits="userSpaceOnUse"><stop offset="0.06" stop-color="#7f1e68"/><stop offset="1" stop-color="#5d2264"/></linearGradient><linearGradient id="Dégradé_sans_nom_58" x1="74.2" y1="146.04" x2="79.48" y2="146.04" gradientUnits="userSpaceOnUse"><stop offset="0" stop-color="#4a2461"/><stop offset="1" stop-color="#622264"/></linearGradient><linearGradient id="Dégradé_sans_nom_20" y1="121.82" x2="298.49" y2="121.82" gradientUnits="userSpaceOnUse"><stop offset="0" stop-color="#25204c"/><stop offset="0.14" stop-color="#4a2461"/><stop offset="0.5" stop-color="#7f1e68"/><stop offset="0.86" stop-color="#4d2461"/><stop offset="1" stop-color="#25204c"/></linearGradient></defs><g id="Calque_2" data-name="Calque 2"><g id="logo2"><g id="waves"><path class="cls-1" d="M170.86,70c-3.21,0-5.82,3-5.82,6.65v39.39h11.64V76.66C176.68,73,174.08,70,170.86,70Z"/><path class="cls-2" d="M149,35.52c-3.22,0-5.82,3-5.82,6.65v73.88h11.64V42.17C154.84,38.49,152.23,35.52,149,35.52Z"/><path class="cls-3" d="M83.5,0c-3.21,0-5.82,3-5.82,6.65v109.4H89.32V6.65C89.32,3,86.72,0,83.5,0Z"/><path class="cls-3" d="M214.54,0c-3.21,0-5.82,3-5.82,6.65v109.4h11.64V6.65C220.36,3,217.75,0,214.54,0Z"/><path class="cls-2" d="M105.34,35.52c-3.21,0-5.82,3-5.82,6.65v73.88h11.64V42.17C111.16,38.49,108.55,35.52,105.34,35.52Z"/><path class="cls-2" d="M61.66,35.52c-3.21,0-5.82,3-5.82,6.65v73.88H67.48V42.17C67.48,38.49,64.87,35.52,61.66,35.52Z"/><path class="cls-2" d="M236.38,35.52c-3.21,0-5.82,3-5.82,6.65v73.88H242.2V42.17C242.2,38.49,239.59,35.52,236.38,35.52Z"/><path class="cls-2" d="M192.7,35.52c-3.21,0-5.82,3-5.82,6.65v73.88h11.64V42.17C198.52,38.49,195.92,35.52,192.7,35.52Z"/><path class="cls-1" d="M127.18,70c-3.22,0-5.82,3-5.82,6.65v39.39H133V76.66C133,73,130.39,70,127.18,70Z"/></g><g id="sofa"><path class="cls-4" d="M46.7,192.88a3.44,3.44,0,0,0,6.87,0V173.19H46.7Z"/><path class="cls-4" d="M245.06,192.88a3.44,3.44,0,0,0,6.88,0V173.19h-6.88Z"/><path class="cls-5" d="M92.83,139.19a5.62,5.62,0,0,1-.31-1.42,3.14,3.14,0,0,0-2.93-2.31c-.27,0-.65,0-.77.23v1.62c0,2.34,0,4.77.16,7.08v.53a5.57,5.57,0,0,0,1.15.08c2.39,0,2.73-2.65,2.73-4.5C92.86,140,92.86,139.69,92.83,139.19Z"/><path class="cls-6" d="M116.26,144.23,116,142l-.08-.08s0-.34,0-.46-.08-1.81-.11-2-.12-1.61-.2-1.92c0,0,0-.16-.07-.16s-.16-.34-.16-.34h0a2.06,2.06,0,0,0-.26.57,4,4,0,0,0-.24,1.78l-.38,2.5a8.55,8.55,0,0,1-.19,2.15c-.12,1-.12,2-.23,3a14.29,14.29,0,0,0-.2,1.66v.23l.16.08h.15c.27,0,.5,0,.73,0s1.39-.12,1.5-.12a.65.65,0,0,0,.27-.08,4.78,4.78,0,0,0,.08-1.07,27.7,27.7,0,0,0-.31-3.08Z"/><path class="cls-7" d="M189.74,144.23l-.27-2.27-.07-.08s0-.34,0-.46-.08-1.81-.12-2-.11-1.61-.19-1.92c0,0,0-.16-.08-.16a2.58,2.58,0,0,0-.15-.34h0a2,2,0,0,0-.27.57,4.19,4.19,0,0,0-.23,1.78l-.38,2.5a9,9,0,0,1-.19,2.15c-.12,1-.12,2-.24,3a16.6,16.6,0,0,0-.19,1.66v.23l.16.08h.15c.27,0,.5,0,.73,0s1.39-.12,1.5-.12a.7.7,0,0,0,.27-.08,4.78,4.78,0,0,0,.08-1.07,27.7,27.7,0,0,0-.31-3.08Z"/><path class="cls-8" d="M79,140.19a2.31,2.31,0,0,0-.15-.54,9.65,9.65,0,0,1-.31-1.15,7,7,0,0,0-.27-.85,3.6,3.6,0,0,0-3-1.61H75.2c-.27,0-.73,0-.84.34,0,.12-.08.62-.08.73v.54c0,.12-.08,1-.08,1.08v.46a4.91,4.91,0,0,0,.08,1.08v2.38c0,2-.08,4-.08,6.08,0,1.24,0,2.31.08,3.54a.94.94,0,0,0,0,.31v2.2a7.6,7.6,0,0,0,.11,1.15,1.8,1.8,0,0,0,.66.12c2.5,0,3.73-1,4-3.51,0-.53.19-2.38.19-2.65a6,6,0,0,0,0-.85c0-1.19.2-2.38.2-3.58A40.77,40.77,0,0,0,79,140.19Z"/><path class="cls-9" d="M282,73.26H268.25a16.54,16.54,0,0,0-16.49,16.49v33.88h-205V89.75A16.54,16.54,0,0,0,30.24,73.26H16.49A16.54,16.54,0,0,0,0,89.75v64a16.52,16.52,0,0,0,15.1,16.42v.22H283v-.19a16.52,16.52,0,0,0,15.49-16.45v-64A16.54,16.54,0,0,0,282,73.26Zm-199.33,76c0,2.24-.12,4.51-1.23,6.51-.16.23-1,1.15-1.12,1.34a5.74,5.74,0,0,1-2.73,1.54l-2.19.5-.2,0h-.8c-.81,0-3,.16-3.43-.88,0-.12,0-.66,0-.81s0-1.19,0-1.35V150c-.11-.08,0-.43,0-.47,0-1.53-.15-3.07-.19-4.58v-.19a7.39,7.39,0,0,1,0-1,7,7,0,0,1,.08-.92v-8.51c0-.11,0-.73.23-.81a.5.5,0,0,1-.08-.15v0c0-.11.27-.08.31-.08.39,0,.77.08,1.19.08,1.08,0,2.24-.11,3.39-.11a10.17,10.17,0,0,1,1.85.23,4.58,4.58,0,0,1,3.73,2.31c.15.5.46,1.23.62,1.8l.38,1.85a2.1,2.1,0,0,1,.08,1c.07,1.47.38,2.89.38,4.35S82.71,147.73,82.67,149.27Zm13,9c-.07,0-.69.27-.77.31a4.47,4.47,0,0,1-1.42.46c-.08,0-.15,0-.27,0-.27-.46-.39-1-.62-1.46a7,7,0,0,1-.65-1.43l-2.19-4.85,0-.15c-.08-.15-.39-.88-.43-1s-.38-1-.5-1c0,.85.08,1.77.08,2.66V152c0,.8,0,4.54,0,5.31,0,.23-.08,1.15-.08,1.3,0,.66-.73.66-1.31.66a6,6,0,0,1-1.61-.23c-.23,0-.31-.43-.31-.62V155c-.31-2.7-.15-5.39-.31-8.12v-.16c0-2.5-.15-5-.11-7.58a1.25,1.25,0,0,1,0-.34v-.12c0-.42.11-3.81.11-4.19-.19-2.12,5.58-2.12,7.32-1.35.3.12.53.27.8.39,1.43,1.15,1.31,1.84,1.89,3.34l.27,2.35v.23a26,26,0,0,1-.23,4.54,1.56,1.56,0,0,1-.16.46c0,.08-.11.43-.11.5s-.54,1.08-.66,1.27c0,0-.07.2-.11.24-.19.15-.81.76-.89.84s-.42.31-.54.35-1,.23-1,.42v0c.77,1.58,1.66,3.12,2.47,4.69,0,.08.26.62.26.7s.35.65.43.77v.07l.58,1.35a5.62,5.62,0,0,1,.53,1.85A.93.93,0,0,1,95.71,158.28Zm11.51-24.94c0,.81-.08,1.27,0,2.08-.35.5-.73.5-1.35.5-.85,0-1.69-.23-2.54-.31h-.46c-.08,0-.46-.11-.54-.11h-.38l-.08.15v6.43c.08.19,0,.23,0,.42s.08.5.08.5l.07.08h1.31a7.06,7.06,0,0,1,.92.15c.58,0,1.31-.08,1.7.39v1.07c0,.54.31,1.81-.5,1.93-.2,0-.35,0-.5.11h-.43c-.65,0-1.3-.11-2-.15a4.73,4.73,0,0,0-.73-.15h-.19s-.08.23-.08.23v.07c0,.16.08.35.08.5a18.73,18.73,0,0,1-.16,2.12v4.89l.16,1.15,0,.12c.84,0,1.65.07,2.5.07l.77,0a1.08,1.08,0,0,1,.5-.08l.23,0c.11,0,1,.11,1.08.11s.34.19.38.43c0,.42.08.92.08,1.34,0,.12-.08,1.16-.35,1.16h-1.54a36.71,36.71,0,0,1-5.69-.2c-.12,0-.81-.07-1-.07l0-.08s-.08-1.11-.12-1.54v-2.92a3,3,0,0,0,0-.58c0-1,.15-2.08.15-3.12a.74.74,0,0,0-.07-.38c.11-1.39-.12-2.81.11-4.23,0-2.2,0-4.35,0-6.51,0-1-.12-2-.12-3s.08-1.92.08-2.92c0-.39.5-.58.81-.58.92,0,1.65.11,2.54.11h3.46c.5,0,1,.08,1.47.16a.59.59,0,0,1,.23.31Zm14.12,25.48a1.16,1.16,0,0,0-.5.27l0,0a2.3,2.3,0,0,1-1.16.08l-.11.08a5.4,5.4,0,0,1-.54-.08c-.77-.11-.73-.92-.69-1.5l-.5-4.42v-.08a1.62,1.62,0,0,0-.47-1c-.84,0-1.69-.08-2.57-.08-.35,0-1.31.12-1.43.46l-.19,2.23a7,7,0,0,1-.12.74c-.15.8-.15,1.61-.38,2.42-.31,1.12-.58,1.31-1.77,1.23,0,0-.08.08-.08.08a4.47,4.47,0,0,1-1-.31.54.54,0,0,1-.23-.42c0-.27.16-.73.19-1,.08-1.54.24-3.12.47-4.7a5.08,5.08,0,0,0,.07-.84l.54-4.93s0-.27,0-.31c.12-1.11.31-2.19.46-3.27a21,21,0,0,0,.2-2.23c0-.42.19-.81.23-1.19,0-.08,0-.5,0-.54v-.39c0-.07.07-.3.07-.38l.39-1.54a11.15,11.15,0,0,1,.15-1.73c.31-2.43-.27-2.58,2.31-3.08a5.34,5.34,0,0,1,1.42-.23h.54c.81,0,.89.81,1,1.46v.12c0,.07,0,.15,0,.23.12.88.27,1.73.35,2.61a2.43,2.43,0,0,1,.12.77c0,.12.15,1.2.19,1.35a1.78,1.78,0,0,0,.11.73,15.45,15.45,0,0,0,.27,1.77,1.83,1.83,0,0,0,.12.46s0,.12,0,.16a17,17,0,0,0,.38,2.38c.16.12.23.93.23,1.16a4.94,4.94,0,0,1,.12.77v.07l.65,3.47c0,.19.2,1.73.23,1.92a9.09,9.09,0,0,0,.16.93c0,.42.19,1.57.19,1.65v.19c0,1.43.58,2.81.58,4.27Zm17.7-1.08c-.2.92-1.27.92-2.12.92s-1-.46-1-1.27c0-1.58-.08-3.23-.08-4.81a1.27,1.27,0,0,1,0-.54c-.07-2.42-.19-4.85-.42-7.27-.12-1.23-.12-2.12-.27-3.35,0,0,0-.23,0-.27a4.45,4.45,0,0,0-.27,1.58c0,.42-.31,1.08-.27,1.58l-.38,2.23c.11,1-.43,1.89-.35,2.89l-.69,4.46c0,.31-.12,1.73-.42,2a3,3,0,0,1-1.43.27l-.38,0a3.3,3.3,0,0,0-.77,0,1.21,1.21,0,0,1-.62-.53,10.74,10.74,0,0,0-.27-1.12c-.08-.42-.61-2.12-.73-2.5l-.11-.27c-.58-2.43-1.24-4.77-1.85-7.2a14.13,14.13,0,0,1-.43-1.42l-.07.08c0,.23.07,1.15.07,1.34,0,1.58,0,3.2,0,4.77.16.62-.15,2.16.12,2.54,0,.5,0,1.08,0,1.54,0,1.31.23,2.62.23,3.89v.15c0,.16-.08.93-.08,1.08a.65.65,0,0,1-.42.35H124.8l-.89,0c-.69-.08-.54-.65-.58-1.23a2.8,2.8,0,0,0,0-.58V147.7a6.12,6.12,0,0,1-.07-.77c-.08-3.08-.08-6.08-.12-9.09,0-.11-.11-1.27-.11-1.42v-2.77c.07-.31.07-.5.3-.69.16,0,.62-.16.74-.16l.19,0,.58,0a3.36,3.36,0,0,1,2,.3,7.73,7.73,0,0,1,.92,2.24v.07a10,10,0,0,1,.15,1.08,19.17,19.17,0,0,0,.58,2l.08.19.65,2.89.16.23.42,1.88a.24.24,0,0,0,0,.16,4.27,4.27,0,0,0,.23.65c.27,1.16.54,2.35.85,3.43a1,1,0,0,0,0,.15h.08a2.33,2.33,0,0,0,.23-1.23l.46-2.27v-.12c.16-.84.39-1.57,1-5v0l.43-2.38v-.16l.42-2.35v-.23a3.2,3.2,0,0,1,.19-1c.19-.65.85-.65,1.46-.65.35,0,.74.11,1.08.11h.19c.16,0,.85-.11,1-.11a.8.8,0,0,1,.53.34,3.86,3.86,0,0,1,.16.77,10.47,10.47,0,0,1,.15,1.2v.15c0,.35,0,1.62,0,1.85,0,.07,0,.46,0,.5a.32.32,0,0,0,0,.11c0,.2.07,1,.07,1.2V140c0,.69,0,2.46,0,2.46l.08.12v2.34l.08.12v1.31a10,10,0,0,1,0,1.81c0,.11.07.81.07.92v.85s.16,3.46.16,5Zm14.35-23.82-.46,1.15a11.23,11.23,0,0,0-1.16,2.58c-.61,1.16-1.23,2.35-1.77,3.58-.23.5-.46,1.23-.65,1.77,0,0-.2.31-.23.35a11.19,11.19,0,0,0-.5,1.27,2.78,2.78,0,0,0-.5,1.34v.27c.11,1.62.07,3.31.11,5l0,.34v1.62a2.6,2.6,0,0,1,.08.73c0,.27,0,2.35,0,2.58v.42c0,.54.12,1.73-.69,1.85-.23,0-1,.11-1.11.11-1.35,0-1.27-1.15-1.24-2.15l-.07-.12c0-.88,0-1.65-.08-2.54-.11-2.07-.08-4.23-.08-6.35a8.65,8.65,0,0,0-.92-3.65c-.11-.16-.23-.43-.35-.62l-.53-1.38a5.18,5.18,0,0,1-.74-1.73c-.46-1.12-1-2.12-1.38-3.35a7.88,7.88,0,0,1-.92-2.12c-.12-.38-.43-.69-.43-1.11a.39.39,0,0,1,.16-.39c.3-.15.34-.08.61-.27l1-.46a1.06,1.06,0,0,1,.58-.31c.69,0,1.08,1.31,1.31,1.81,0,0,.38.88.42,1,.92,2.08,2,4.12,2.77,6.27h.08a47.4,47.4,0,0,1,2-4.77l1-2c.31-.58.66-2,1.43-2.15.5.07,2.23.73,2.23,1.38Zm29.08,2v.77s-.11.46-.11.5c-.19,1.08-.19,2.12-.35,3.19,0,.35-.11.69-.15,1.08,0,.23-.19,2.35-.19,2.58v.34l-.31,2.89v.12c0,.11-.08,1.15-.12,1.27-.42,4.46-1.07,10.39-2,9.92-.11,0-.34,0-.46.16h-.5a5,5,0,0,1-1.35-.08,2,2,0,0,1-.23-.08h-.11a1.64,1.64,0,0,1-.85-.3,4.06,4.06,0,0,1-.23-1.12,3.35,3.35,0,0,0-.12-.54,14.83,14.83,0,0,0-.5-2.61l-.57-3.89a.58.58,0,0,1-.08-.12l-.08,0a6.91,6.91,0,0,1-.15,1.31v.19c0,.08-.23,1.12-.23,1.27a2.17,2.17,0,0,1-.08.5,10.18,10.18,0,0,1-.19,1.08c-.08.54-.08,1-.16,1.58a.42.42,0,0,1-.07.11c-.31,2.2-.5,3.12-2.89,3.12a2.26,2.26,0,0,1-1.69-.69s-.08-.12-.08-.12c0-.19-.27-1.23-.34-1.46a5,5,0,0,0-.2-.58l-.27-1.88c-.11-1-.34-1.89-.5-2.85,0,0-.11-.73-.11-.81A6.8,6.8,0,0,1,167,150c0-.07-.11-.65-.11-.73s-.08-.11-.08-.15l-.69-4.81v-.2s-.27-1.65-.39-2.3a21.58,21.58,0,0,0-.27-2.39s0-.11-.07-.11l-.2-2.28a7.06,7.06,0,0,1-.11-2c0-.61-.15-1.15-.15-1.77,0-.15,0-.3.07-.38a8.72,8.72,0,0,1,2.39-.43c.46,0,.54,1.51.58,1.81l.27,2.43c.15.23.07.61.07.92,0,.58.19,1.12.27,1.7,0,.42.08.84.08,1.26s.19,1.16.19,1.16l.08.11.38,2.27a1.36,1.36,0,0,0,.08.39c.19,1.65.46,3.19.77,4.81,0,.08,0,.19,0,.27a15.42,15.42,0,0,0,.5,2.58.14.14,0,0,1,0-.08,3.46,3.46,0,0,0,.11-.38,4.45,4.45,0,0,0,0-.73,9,9,0,0,0,.23-1.43v-.08s-.07-.19-.07-.23a1,1,0,0,0,.07-.19,4.08,4.08,0,0,0,.12-.61c0-.12.11-1.16.11-1.31a1.8,1.8,0,0,0,.12-.66l.31-2.31V144a17.73,17.73,0,0,0,.46-2.35c.08-.65,0-2.08.61-2.5l.23,0a9.2,9.2,0,0,1,1-.07,2.17,2.17,0,0,1,1.58.69,13.36,13.36,0,0,0,.42,1.92,21.19,21.19,0,0,0,.27,2.23c0,.35.15.58.19.89.27,2.19.77,4.27,1.08,6.43a2.57,2.57,0,0,1,.15.77h.08v-.5l.27-2.24v-.19l.27-2.19v-.23l.31-2.47v-.38l.57-7v-.34c0-.7.16-1.35.19-2.08.08-.58.08-1.12.2-1.69s1.65-.54,2.11-.54c.31,0,.85,0,1,.3a2.34,2.34,0,0,1,.08.7C182.82,134.11,182.51,135,182.47,136Zm12.35,22.86a1.29,1.29,0,0,0-.5.27l0,0a2.3,2.3,0,0,1-1.16.08l-.11.08a5.4,5.4,0,0,1-.54-.08c-.77-.11-.73-.92-.7-1.5l-.5-4.42v-.08a1.56,1.56,0,0,0-.46-1c-.84,0-1.69-.08-2.58-.08-.34,0-1.3.12-1.42.46l-.19,2.23a7,7,0,0,1-.12.74c-.15.8-.15,1.61-.38,2.42-.31,1.12-.58,1.31-1.77,1.23,0,0-.08.08-.08.08a4.47,4.47,0,0,1-1-.31.54.54,0,0,1-.23-.42c0-.27.15-.73.19-1,.08-1.54.23-3.12.46-4.7a5,5,0,0,0,.08-.84l.54-4.93s0-.27,0-.31c.12-1.11.31-2.19.46-3.27a18.64,18.64,0,0,0,.19-2.23c0-.42.2-.81.24-1.19,0-.08,0-.5,0-.54v-.39c0-.07.08-.3.08-.38l.39-1.54a11.15,11.15,0,0,1,.15-1.73c.31-2.43-.27-2.58,2.31-3.08a5.28,5.28,0,0,1,1.42-.23h.54c.81,0,.89.81,1,1.46v.12c0,.07,0,.15,0,.23.12.88.27,1.73.35,2.61a2.76,2.76,0,0,1,.11.77c0,.12.16,1.2.2,1.35a1.78,1.78,0,0,0,.11.73,13.53,13.53,0,0,0,.27,1.77,1.83,1.83,0,0,0,.12.46s0,.12,0,.16a18.71,18.71,0,0,0,.39,2.38,2.79,2.79,0,0,1,.23,1.16,4.94,4.94,0,0,1,.12.77v.07l.65,3.47c0,.19.19,1.73.23,1.92s.12.81.15.93c0,.42.2,1.57.2,1.65v.19c0,1.43.57,2.81.57,4.27Zm11.7-26c-.11,1-.15,2.19-.31,3.27v.16c0,.19-.15,1.23-.19,1.46a18.78,18.78,0,0,1-.42,2.35c0,.07,0,.69,0,.77s-.2,1.3-.23,1.5,0,.34,0,.42c0,.27-.23,1.5-.3,1.77s-.08.62-.08,1l-.23,2.2a8.83,8.83,0,0,1-.35,2.5v.11c-.11,1.39-.38,2.73-.58,4a6.25,6.25,0,0,0-.19,1.12l-.38,2.12v.07a4,4,0,0,1-.23.69,1.37,1.37,0,0,1-.7.39c-.19,0-1.15,0-1.34.08a3.07,3.07,0,0,1-.31,0,3.17,3.17,0,0,1-2-.47s0-.15,0-.19a5.19,5.19,0,0,1-.62-2.39l-1-5.31v-.19s-.46-2-.65-2.92c.08.31,0-.23-.11-.81a28.52,28.52,0,0,1-.54-3.35l-.08-.08a9.14,9.14,0,0,1-.19-1.07c0-.12-.12-1.12-.16-1.23s0-.16,0-.2l-.34-2.73s-.19-1.58-.31-2.23c0,0-.08-.23-.08-.27,0-.35-.23-1.73-.27-2a2.74,2.74,0,0,1-.15-.46.48.48,0,0,1,.38-.46l1-.08h.23c.31,0,.77-.12,1,0,.54.42.61,1.42.73,1.92s.31,2.7.35,3.12c0,.08.11.42.11.5.16.73.42,2.42.42,2.46l0,.19s.27,1.51.31,2.12a24.42,24.42,0,0,0,.66,2.85l.5,2.23V148c0,.07.23,1.26.34,1.8a4.28,4.28,0,0,1,.08.43c.23.84.27,1.77.46,2.61.15.23.12,1.35.39,1.31s.34-1.15.3-1.42l.27-2.2a3,3,0,0,1,.2-1.15c.19-2,.3-4,.42-6a15.79,15.79,0,0,0,.19-3.08l.35-2.2v-.19c0-.23.3-1.58.3-1.88a2.82,2.82,0,0,1,.08-.54v-.16c0-.23.16-1.38.19-1.61,0,0,.08-.35.12-.39.15-.81-.12-.92.65-1.11a2.78,2.78,0,0,1,.77-.12H205c.54,0,1.5,0,1.5.65Zm11,.5c0,.81-.07,1.27,0,2.08-.34.5-.73.5-1.34.5-.85,0-1.7-.23-2.54-.31h-.46c-.08,0-.47-.11-.54-.11h-.39l-.07.15v6.43c.07.19,0,.23,0,.42s.07.5.07.5l.08.08h1.31a7.34,7.34,0,0,1,.92.15c.58,0,1.31-.08,1.69.39v1.07c0,.54.31,1.81-.5,1.93-.19,0-.34,0-.5.11h-.42c-.65,0-1.31-.11-2-.15a4.73,4.73,0,0,0-.73-.15h-.2a1,1,0,0,0-.07.23v.07c0,.16.07.35.07.5a18.72,18.72,0,0,1-.15,2.12v4.89l.15,1.15,0,.12c.85,0,1.66.07,2.5.07l.77,0a1.12,1.12,0,0,1,.5-.08l.24,0c.11,0,1,.11,1.07.11.27,0,.35.19.39.43,0,.42.07.92.07,1.34,0,.12-.07,1.16-.34,1.16h-1.54a36.84,36.84,0,0,1-5.7-.2c-.11,0-.81-.07-1-.07l0-.08s-.07-1.11-.11-1.54v-2.92a3,3,0,0,0,0-.58c0-1,.15-2.08.15-3.12a.66.66,0,0,0-.08-.38c.12-1.39-.11-2.81.12-4.23,0-2.2,0-4.35,0-6.51,0-1-.12-2-.12-3s.08-1.92.08-2.92c0-.39.5-.58.81-.58.92,0,1.65.11,2.54.11h3.46c.5,0,1,.08,1.46.16a.55.55,0,0,1,.23.31Zm10.66,6a6.61,6.61,0,0,1-.11.76l-.08.08s-.23,0-.31,0a9.76,9.76,0,0,1-1.58-.12c-.15-.19-1,.08-1-.26s.12-.85.12-1.31v0c-.23-1-.7-2.54-2-2.54s-1.73,1.46-1.73,2.42a7.29,7.29,0,0,0,1,3.62l0,0a1.22,1.22,0,0,1,.27.5s.12.27.12.31c.3.61.88,1.23,1.27,1.84.42.77,1.07,1.47,1.54,2.27a14.2,14.2,0,0,1,2.31,6.93,4.77,4.77,0,0,1-2.78,4.7h0a2.47,2.47,0,0,0-.54.11c-.16.31-1.27.31-1.58.31a5.49,5.49,0,0,1-3.12-.92c-.34-.2-.46-.66-.73-.89a6.32,6.32,0,0,1-1-3.46v-.89c.11-.34,0-1.38.31-1.58h1.11a2.56,2.56,0,0,0,.27-.07h.19l1,.07c.19,0,.27.24.27.43v1.38c.19.58,0,2.7,1.07,2.7,1.66,0,2.16-.73,2.16-2.39a8.63,8.63,0,0,0-1-4,2.55,2.55,0,0,0-.7-1.12,20.16,20.16,0,0,0-2.65-3.81,1.88,1.88,0,0,0-.12-.15,9.26,9.26,0,0,1-1.84-5.27,12.88,12.88,0,0,1,.46-3.2,4.71,4.71,0,0,1,4.31-2.69,8.94,8.94,0,0,1,1.58.23c2.42.58,3.42,3,3.42,5.27Z"/></g></g></g></svg>